<?xml version="1.0" encoding="UTF-8" standalone="no"?>
<!DOCTYPE svg PUBLIC "-//W3C//DTD SVG 1.1//EN" "http://www.w3.org/Graphics/SVG/1.1/DTD/svg11.dtd">
<svg width="100%" height="100%" viewBox="0 0 67 67" version="1.1" xmlns="http://www.w3.org/2000/svg" xmlns:xlink="http://www.w3.org/1999/xlink" xml:space="preserve" xmlns:serif="http://www.serif.com/" style="fill-rule:evenodd;clip-rule:evenodd;stroke-linejoin:round;stroke-miterlimit:2;">
    <g transform="matrix(1,0,0,1,-16.843,-16.843)">
        <path d="M50,16.843C68.3,16.843 83.157,31.7 83.157,50C83.157,68.3 68.3,83.157 50,83.157C31.7,83.157 16.843,68.3 16.843,50C16.843,31.7 31.7,16.843 50,16.843ZM46.658,69.05L53.342,69.05L53.342,53.244L69.031,53.244L69.031,46.638L53.342,46.638L53.342,30.95L46.658,30.95L46.658,46.638L30.969,46.638L30.969,53.244L46.658,53.244L46.658,69.05Z" style="fill:rgb(243,111,58);"/>
    </g>
</svg>
