<?xml version="1.0" encoding="UTF-8" standalone="no"?>
<!DOCTYPE svg PUBLIC "-//W3C//DTD SVG 1.1//EN" "http://www.w3.org/Graphics/SVG/1.1/DTD/svg11.dtd">
<svg width="100%" height="100%" viewBox="0 0 67 67" version="1.1" xmlns="http://www.w3.org/2000/svg" xmlns:xlink="http://www.w3.org/1999/xlink" xml:space="preserve" xmlns:serif="http://www.serif.com/" style="fill-rule:evenodd;clip-rule:evenodd;stroke-linecap:round;stroke-linejoin:round;stroke-miterlimit:1.5;">
    <g transform="matrix(1,0,0,1,-16.55,-16.55)">
        <path d="M50,16.85C68.296,16.85 83.15,31.704 83.15,50C83.15,68.296 68.296,83.15 50,83.15C31.704,83.15 16.85,68.296 16.85,50C16.85,31.704 31.704,16.85 50,16.85ZM31.872,44.808L31.872,56.688L44.016,56.688L44.016,67.336L55.984,67.336L55.984,56.688L68.128,56.688L68.128,44.808L55.984,44.808L55.984,32.664L44.016,32.664L44.016,44.808L31.872,44.808Z" style="fill:rgb(255,184,82);stroke:black;stroke-width:0.6px;"/>
    </g>
</svg>
